<svg width="108" height="92" viewBox="0 0 108 92" fill="none" xmlns="http://www.w3.org/2000/svg">
<path d="M0 7.66667C0 3.42604 3.44732 0 7.71429 0H100.286C104.553 0 108 3.42604 108 7.66667C108 11.9073 104.553 15.3333 100.286 15.3333H7.71429C3.44732 15.3333 0 11.9073 0 7.66667ZM0 46C0 41.7594 3.44732 38.3333 7.71429 38.3333H100.286C104.553 38.3333 108 41.7594 108 46C108 50.2406 104.553 53.6667 100.286 53.6667H7.71429C3.44732 53.6667 0 50.2406 0 46ZM108 84.3333C108 88.574 104.553 92 100.286 92H7.71429C3.44732 92 0 88.574 0 84.3333C0 80.0927 3.44732 76.6667 7.71429 76.6667H100.286C104.553 76.6667 108 80.0927 108 84.3333Z" fill="#62707A"/>
</svg>
